# xmcd
# 
# Track frame offsets:
#     150
#     19566
#     40235
# 
# Disc length: 794
# 
# Revision: 1
# Processed by: cddbd v1.5.2PL0 Copyright (c) Steve Scherf et al.
# Submitted via: fre:ac v1.0.31
# 
DISCID=18031803
DTITLE=小坂由美子 - マスカレード
DYEAR=1993
DGENRE=Anime
TTITLE0=マスカレード
TTITLE1=アンジュラ
TTITLE2=マスカレード(オリジナル・カラオケ)
EXTD=
EXTT0=
EXTT1=
EXTT2=
PLAYORDER=
